<svg xmlns="http://www.w3.org/2000/svg" viewBox="0 0 200 200">
  <!-- Background gradient representing thermal imaging -->
  <defs>
    <linearGradient id="thermalGradient" x1="0%" y1="0%" x2="100%" y2="100%">
      <stop offset="0%" style="stop-color:#FF0000;stop-opacity:0.8"/>
      <stop offset="50%" style="stop-color:#FFFF00;stop-opacity:0.8"/>
      <stop offset="100%" style="stop-color:#00FF00;stop-opacity:0.8"/>
    </linearGradient>
    <filter id="glow">
      <feGaussianBlur stdDeviation="2" result="coloredBlur"/>
      <feMerge>
        <feMergeNode in="coloredBlur"/>
        <feMergeNode in="SourceGraphic"/>
      </feMerge>
    </filter>
  </defs>

  <!-- Main circular frame -->
  <circle cx="100" cy="100" r="80" fill="none" stroke="#2196F3" stroke-width="4" filter="url(#glow)"/>

  <!-- Thermal scan lines -->
  <g transform="translate(100,100)">
    <path d="M-60,-60 Q0,-20 60,-60" fill="none" stroke="url(#thermalGradient)" stroke-width="3"/>
    <path d="M-60,-20 Q0,20 60,-20" fill="none" stroke="url(#thermalGradient)" stroke-width="3"/>
    <path d="M-60,20 Q0,60 60,20" fill="none" stroke="url(#thermalGradient)" stroke-width="3"/>
  </g>

  <!-- AI/Neural network nodes -->
  <g fill="#4CAF50" filter="url(#glow)">
    <circle cx="70" cy="70" r="4"/>
    <circle cx="130" cy="70" r="4"/>
    <circle cx="100" cy="100" r="4"/>
    <circle cx="70" cy="130" r="4"/>
    <circle cx="130" cy="130" r="4"/>
  </g>

  <!-- Neural network connections -->
  <g stroke="#4CAF50" stroke-width="1.5">
    <line x1="70" y1="70" x2="100" y2="100"/>
    <line x1="130" y1="70" x2="100" y2="100"/>
    <line x1="70" y1="130" x2="100" y2="100"/>
    <line x1="130" y1="130" x2="100" y2="100"/>
  </g>

  <!-- Medical cross symbol -->
  <g transform="translate(100,100) scale(0.15)" fill="#E91E63" filter="url(#glow)">
    <rect x="-20" y="-60" width="40" height="120" rx="10"/>
    <rect x="-60" y="-20" width="120" height="40" rx="10"/>
  </g>
</svg>